<svg id="Layer_1" data-name="Layer 1" xmlns="http://www.w3.org/2000/svg" viewBox="0 0 669.62 141.75"><defs><style>.cls-1,.cls-2{fill:#f39039;}.cls-2{fill-rule:evenodd;}</style></defs><title>Full logo</title><path class="cls-1" d="M128.95,377.14l-25-33.22a32.67,32.67,0,0,0,8.83-2.79,25.76,25.76,0,0,0,7-4.94,20.82,20.82,0,0,0,4.59-7,24.08,24.08,0,0,0,1.63-9.12,23.17,23.17,0,0,0-2.09-9.93,22,22,0,0,0-5.92-7.67,27.35,27.35,0,0,0-9.23-4.94,39.43,39.43,0,0,0-12.14-1.74h-35v81.31h9.18v-31.6H94.1l23.58,31.6Zm-12.2-56.69a15.62,15.62,0,0,1-1.57,7.09,15.13,15.13,0,0,1-4.36,5.29,20.43,20.43,0,0,1-6.62,3.31,28.74,28.74,0,0,1-8.36,1.16h-25v-33H96q9.87,0,15.33,4.24T116.75,320.46Z" transform="translate(-61.69 -235.63)"/><rect class="cls-1" x="131.54" y="60.21" width="9.18" height="81.31"/><path class="cls-1" d="M311.64,295.25H303L266,377.14h9.41L285,355.65H329.3l9.52,21.49h9.87l-37.05-81.89Zm14.05,52.16H288.64l18.59-41.47Z" transform="translate(-61.69 -235.63)"/><polygon class="cls-1" points="511.13 68.69 538.42 68.69 538.42 60.21 474.54 60.21 474.54 68.69 501.83 68.69 501.83 141.52 511.13 141.52 511.13 68.69"/><path class="cls-1" d="M731.31,377.14l-25-33.22a32.67,32.67,0,0,0,8.83-2.79,25.76,25.76,0,0,0,7-4.94,20.81,20.81,0,0,0,4.59-7,24.07,24.07,0,0,0,1.63-9.12,23.16,23.16,0,0,0-2.09-9.93,22,22,0,0,0-5.92-7.67,27.35,27.35,0,0,0-9.23-4.94A39.43,39.43,0,0,0,699,295.83h-35v81.31h9.18v-31.6h23.23L720,377.14Zm-12.2-56.69a15.62,15.62,0,0,1-1.57,7.09,15.13,15.13,0,0,1-4.36,5.29,20.44,20.44,0,0,1-6.62,3.31,28.74,28.74,0,0,1-8.36,1.16h-25v-33h25.09q9.87,0,15.33,4.24T719.11,320.46Z" transform="translate(-61.69 -235.63)"/><path class="cls-2" d="M441,341.74l17.79,21.41a10.13,10.13,0,1,0,7-5.81l-18.87-22.71L463,315.27a10.14,10.14,0,1,0-7-5.87l-15,18.11L435,334.62,420.65,351.9V254.83a10.15,10.15,0,1,0-9.18,0V377.14l9.18-11L441,341.74Zm-24.9-99.1a3.14,3.14,0,1,1-3.14,3.14,3.14,3.14,0,0,1,3.14-3.14Zm52,121.45a3.14,3.14,0,1,1-3.14,3.14,3.14,3.14,0,0,1,3.14-3.14Zm-2.72-61.83a3.14,3.14,0,1,1-3.14,3.14A3.14,3.14,0,0,1,465.32,302.26Z" transform="translate(-61.69 -235.63)"/></svg>